<?xml version="1.0" encoding="UTF-8" standalone="no"?>
<svg
   xmlns:dc="http://purl.org/dc/elements/1.1/"
   xmlns:cc="http://creativecommons.org/ns#"
   xmlns:rdf="http://www.w3.org/1999/02/22-rdf-syntax-ns#"
   xmlns:svg="http://www.w3.org/2000/svg"
   xmlns="http://www.w3.org/2000/svg"
   xmlns:sodipodi="http://sodipodi.sourceforge.net/DTD/sodipodi-0.dtd"
   xmlns:inkscape="http://www.inkscape.org/namespaces/inkscape"
   height="511pt"
   viewBox="0 1 511 511.99998"
   width="511pt"
   version="1.1"
   id="svg6"
   sodipodi:docname="cap.svg"
   inkscape:version="1.0.2 (e86c870879, 2021-01-15, custom)">
  <metadata
     id="metadata12">
    <rdf:RDF>
      <cc:Work
         rdf:about="">
        <dc:format>image/svg+xml</dc:format>
        <dc:type
           rdf:resource="http://purl.org/dc/dcmitype/StillImage" />
        <dc:title></dc:title>
      </cc:Work>
    </rdf:RDF>
  </metadata>
  <defs
     id="defs10" />
  <sodipodi:namedview
     pagecolor="#ffffff"
     bordercolor="#666666"
     borderopacity="1"
     objecttolerance="10"
     gridtolerance="10"
     guidetolerance="10"
     inkscape:pageopacity="0"
     inkscape:pageshadow="2"
     inkscape:window-width="1920"
     inkscape:window-height="1017"
     id="namedview8"
     showgrid="false"
     inkscape:zoom="0.62377691"
     inkscape:cx="334.05769"
     inkscape:cy="407.62323"
     inkscape:window-x="-8"
     inkscape:window-y="-8"
     inkscape:window-maximized="1"
     inkscape:current-layer="svg6" />
  <path
     d="m481.871094 318.636719c-9.375-71.210938-36.574219-136.355469-76.707032-183.585938-24.199218-28.476562-52.328124-49.472656-82.4375-62.027343.179688-1.996094.269532-4.007813.269532-6.023438 0-36.945312-30.050782-67-66.988282-67s-66.988281 30.054688-66.988281 67c0 1.980469.09375 3.960938.265625 5.929688-8.648437 3.605468-17.160156 7.90625-25.511718 12.945312-27.886719 16.824219-52.730469 40.78125-73.835938 71.207031-2.390625 3.441407-1.535156 8.171875 1.910156 10.558594 3.445313 2.390625 8.171875 1.535156 10.5625-1.910156 19.878906-28.652344 43.160156-51.148438 69.203125-66.859375 26.71875-16.117188 55.113281-24.289063 84.394531-24.289063 50.207032 0 99.070313 24.964844 137.589844 70.296875 37.53125 44.171875 63.234375 105.007813 72.695313 171.824219h-420.554688c6.875-48.546875 22.367188-94.332031 44.996094-132.722656 2.128906-3.609375.925781-8.261719-2.683594-10.390625s-8.265625-.929688-10.394531 2.683594c-24.265625 41.164062-40.675781 90.359374-47.523438 142.367187-17.15625 5.394531-29.632812 21.445313-29.632812 40.359375v110.703125c0 23.320313 18.972656 42.296875 42.296875 42.296875h371.070313c4.191406 0 7.585937-3.398438 7.585937-7.589844s-3.394531-7.589844-7.585937-7.589844h-371.070313c-14.953125 0-27.117187-12.164062-27.117187-27.117187v-110.703125c0-14.953125 12.164062-27.117188 27.117187-27.117188h426.417969c14.953125 0 27.117187 12.164063 27.117187 27.117188v110.703125c0 14.953125-12.164062 27.117187-27.117187 27.117187h-30.046875c-4.195313 0-7.589844 3.398438-7.589844 7.589844s3.394531 7.589844 7.589844 7.589844h30.046875c23.324218 0 42.296875-18.972656 42.296875-42.296875v-110.703125c0-18.917969-12.480469-34.96875-29.640625-40.363281zm-277.660156-251.1875c-.003907-.148438-.011719-.300781-.011719-.449219 0-28.574219 23.242187-51.820312 51.808593-51.820312 28.570313 0 51.8125 23.246093 51.8125 51.820312 0 .183594-.011718.363281-.011718.546875-16.871094-5.363281-34.242188-8.140625-51.800782-8.140625-17.632812 0-34.945312 2.707031-51.796874 8.042969zm0 0"
     id="path2" />
  <path
     d="m235.925781 361.226562c-14.316406 0-25.960937 11.648438-25.960937 25.960938v54.328125c0 14.316406 11.644531 25.960937 25.960937 25.960937h40.160157c14.316406 0 25.960937-11.644531 25.960937-25.960937v-54.328125c0-14.3125-11.644531-25.960938-25.960937-25.960938zm50.945313 25.960938v54.328125c0 5.945313-4.839844 10.78125-10.785156 10.78125h-40.160157c-5.945312 0-10.78125-4.835937-10.78125-10.78125v-54.328125c0-5.945312 4.835938-10.78125 10.78125-10.78125h40.160157c5.945312 0 10.785156 4.835938 10.785156 10.78125zm0 0"
     id="path4" />
  <path
     style="fill:#ffffff;stroke-width:1.60314"
     d="M 40.517333,676.27986 C 25.74112,671.6551 11.231486,657.46733 5.1338287,641.68127 2.6582345,635.27226 2.2837025,625.90638 1.7779056,557.7601 1.1796969,477.16309 1.9509443,464.01394 7.9682829,452.21897 12.888751,442.57406 22.868934,432.57621 32.708569,427.4349 c 4.822928,-2.52002 8.770672,-5.07489 8.772768,-5.6775 0.01648,-4.74071 9.18749,-49.45189 13.586137,-66.23613 9.660504,-36.86228 25.509962,-77.74581 41.541694,-107.1564 8.661802,-15.89028 11.070692,-18.68987 16.081632,-18.68987 4.05392,0 8.95121,4.54279 8.95121,8.30325 0,1.34191 -5.34132,12.82768 -11.86961,25.52397 C 86.38465,308.98699 69.822161,360.50603 61.50728,413.635 l -1.066312,6.81333 H 341.22914 622.0173 l -1.06668,-7.6149 C 617.20986,386.12853 605.87383,342.21464 595.32453,313.5621 588.0405,293.77824 569.88757,256.0253 558.93758,237.88753 537.62177,202.57967 501.1033,162.05228 471.79933,141.18344 416.16229,101.56148 350.156,88.023581 289.47745,103.7892 c -53.43922,13.88467 -102.33528,48.42457 -143.03224,101.03717 -6.82034,8.81725 -13.85198,16.58752 -15.62588,17.26725 -4.76446,1.82565 -10.78046,-2.6871 -10.78046,-8.08671 0,-9.54173 40.70693,-56.38088 68.13333,-78.39716 14.9428,-11.99518 38.68614,-27.01795 54.10589,-34.2336 l 10.82117,-5.063758 0.0237,-9.066932 c 0.0962,-36.829486 26.73194,-72.589526 62.38302,-83.7530304 13.58114,-4.25269447 35.69935,-4.5864872 49.09201,-0.7408633 37.28006,10.7047447 64.72428,46.5206697 64.82268,84.5964527 l 0.0237,9.169495 11.62274,5.380996 c 28.16018,13.03736 55.5982,33.26417 82.27983,60.65521 57.94995,59.49071 97.91438,143.2988 114.5696,240.2601 1.8932,11.02157 3.55498,20.13277 3.69285,20.24714 0.13786,0.11431 3.88669,2.03368 8.33071,4.26515 10.17156,5.10745 20.61208,16.33917 26.13024,28.11045 l 4.26494,9.09804 v 84.96628 84.96627 l -3.8536,9.56915 c -4.6243,11.48287 -16.54505,24.07043 -28.20914,29.78704 -7.47978,3.66586 -9.99738,3.96222 -37.65557,4.4325 -28.80327,0.48976 -29.71955,0.40556 -32.46352,-2.98309 -3.41741,-4.22034 -3.53064,-6.35977 -0.55251,-10.44037 2.05166,-2.81116 4.95648,-3.19359 30.05882,-3.95732 24.25577,-0.73799 28.60273,-1.27851 34.20023,-4.25263 8.21773,-4.36632 12.61896,-9.14954 16.69823,-18.14743 3.15098,-6.95034 3.27154,-10.14507 3.29683,-87.37098 0.0176,-53.76746 -0.55818,-82.26802 -1.74896,-86.56942 -2.35544,-8.50841 -14.5471,-20.70007 -23.05551,-23.05551 -8.94142,-2.47531 -582.456732,-2.52169 -591.366421,-0.0478 -8.274101,2.29739 -20.514219,14.64836 -23.080306,23.28934 -2.491897,8.39116 -2.788899,160.28392 -0.330713,169.13356 2.469984,8.89211 8.064693,16.05779 16.711393,21.40389 l 7.859358,4.8593 254.963579,0.80157 254.96357,0.80156 2.37067,4.2239 c 2.12676,3.78929 2.08802,4.65529 -0.3764,8.41647 l -2.74709,4.19253 -254.46107,-0.10725 C 99.076314,678.36084 45.75224,677.91833 40.517333,676.27986 Z M 283.55887,86.16484 c 34.79391,-9.454988 83.61921,-9.471682 114.62431,-0.0392 13.27257,4.037831 13.24375,4.058305 11.7548,-8.347909 -5.5475,-46.222757 -57.95402,-73.30433 -100.38206,-51.873387 -19.77228,9.987232 -35.19203,31.974032 -36.8423,52.532906 -0.44863,5.588912 -0.17585,10.153095 0.60616,10.142629 0.78201,-0.01042 5.3896,-1.097238 10.23909,-2.41505 z"
     id="path14"
     transform="matrix(0.7514677,0,0,0.7514677,-0.49999,1)" />
  <path
     style="fill:#ffffff;stroke-width:1.60314"
     d="m 300.39181,616.57352 c -7.07322,-3.7289 -11.90107,-8.55236 -15.7866,-15.77225 -3.22772,-5.99758 -3.48348,-9.03501 -3.95222,-46.93772 -0.58304,-47.14413 0.46234,-53.46733 10.45124,-63.21677 9.80027,-9.56531 15.8586,-10.88365 49.96836,-10.87343 16.87484,0.005 32.64554,0.78084 36.26981,1.78417 8.50842,2.35543 20.70008,14.5471 23.05552,23.05552 2.34245,8.46151 2.38127,80.40911 0.0484,89.67386 -2.16997,8.61773 -9.45226,17.64214 -17.58411,21.7907 -5.62789,2.87113 -9.45757,3.15389 -41.92729,3.09556 -29.39697,-0.0528 -36.58653,-0.5138 -40.54308,-2.59964 z m 78.6957,-20.27027 3.86587,-4.49803 v -41.71549 -41.71549 l -4.68609,-4.68609 -4.6861,-4.68609 h -32.30938 -32.30938 l -4.68609,4.68609 -4.6861,4.68609 v 41.44818 c 0,44.53156 0.39061,46.81654 8.58801,50.23852 1.88954,0.78879 17.74729,1.27804 35.23946,1.08724 l 31.80393,-0.34691 z"
     id="path16"
     transform="matrix(0.7514677,0,0,0.7514677,-0.49999,1)" />
</svg>
