<?xml version="1.0" encoding="UTF-8" standalone="no"?>
<svg
   xmlns:dc="http://purl.org/dc/elements/1.1/"
   xmlns:cc="http://creativecommons.org/ns#"
   xmlns:rdf="http://www.w3.org/1999/02/22-rdf-syntax-ns#"
   xmlns:svg="http://www.w3.org/2000/svg"
   xmlns="http://www.w3.org/2000/svg"
   xmlns:sodipodi="http://sodipodi.sourceforge.net/DTD/sodipodi-0.dtd"
   xmlns:inkscape="http://www.inkscape.org/namespaces/inkscape"
   version="1.1"
   id="Capa_1"
   x="0px"
   y="0px"
   viewBox="0 0 479.667 479.667"
   style="enable-background:new 0 0 479.667 479.667;"
   xml:space="preserve"
   sodipodi:docname="indian.svg"
   inkscape:version="1.0.2 (e86c870879, 2021-01-15, custom)"><metadata
   id="metadata39"><rdf:RDF><cc:Work
       rdf:about=""><dc:format>image/svg+xml</dc:format><dc:type
         rdf:resource="http://purl.org/dc/dcmitype/StillImage" /></cc:Work></rdf:RDF></metadata><defs
   id="defs37" /><sodipodi:namedview
   pagecolor="#ffffff"
   bordercolor="#666666"
   borderopacity="1"
   objecttolerance="10"
   gridtolerance="10"
   guidetolerance="10"
   inkscape:pageopacity="0"
   inkscape:pageshadow="2"
   inkscape:window-width="1018"
   inkscape:window-height="1048"
   id="namedview35"
   showgrid="false"
   inkscape:zoom="1.8554539"
   inkscape:cx="239.8335"
   inkscape:cy="239.8335"
   inkscape:window-x="893"
   inkscape:window-y="0"
   inkscape:window-maximized="0"
   inkscape:current-layer="Capa_1" />
<path
   d="M474.87,180.079c-2.437-1.931-5.632-2.619-8.647-1.863c-40.447,10.151-73.411,39.497-88.176,78.499l-9.061,23.937  c-3.01-8.646-6.865-16.898-11.467-24.66l42.639-47.559c31.369-34.988,43.645-83.178,32.835-128.909  c-0.715-3.025-2.796-5.546-5.632-6.821c-2.836-1.274-6.103-1.158-8.84,0.316c-41.376,22.274-69.268,63.445-74.61,110.131  l-5.464,47.75c-9.256-9.646-19.912-17.938-31.634-24.554l32.57-51.342c25.172-39.68,29.335-89.234,11.136-132.558  c-1.204-2.866-3.673-5.009-6.68-5.799c-3.005-0.791-6.209-0.136-8.667,1.769c-37.138,28.791-57.861,73.996-55.435,120.924  l2.912,56.311c-9.378-3.101-19.2-5.214-29.347-6.211l17.363-54.489c14.268-44.771,5.707-93.757-22.9-131.038  C245.874,1.446,242.943,0,239.833,0c-3.108,0-6.041,1.446-7.934,3.912c-28.606,37.279-37.168,86.265-22.901,131.038l17.364,54.489  c-10.147,0.997-19.969,3.111-29.347,6.211l2.912-56.311c2.428-46.927-18.295-92.133-55.434-120.924  c-2.457-1.905-5.659-2.56-8.667-1.769c-3.007,0.79-5.476,2.933-6.68,5.799c-18.2,43.322-14.037,92.876,11.135,132.558l32.571,51.343  c-11.722,6.616-22.377,14.907-31.633,24.553l-5.464-47.75c-5.343-46.687-33.234-87.857-74.61-110.131  c-2.737-1.474-6.006-1.59-8.84-0.316c-2.836,1.274-4.917,3.795-5.632,6.821c-10.81,45.731,1.465,93.921,32.834,128.909l42.64,47.559  c-4.601,7.762-8.457,16.014-11.467,24.66l-9.062-23.936c-14.764-39.002-47.727-68.347-88.175-78.499  c-3.017-0.756-6.212-0.068-8.647,1.863s-3.835,4.886-3.786,7.995c0.661,41.697,21.717,80.483,56.325,103.752l45.819,30.807  c-0.02,0.951-0.036,1.902-0.036,2.857c0,19.482,4.216,38.874,12.221,56.522c-10.602,12.618-16.388,28.398-16.388,45.074  c0,18.756,7.304,36.389,20.566,49.652c1.953,1.953,4.512,2.929,7.071,2.929s5.118-0.976,7.071-2.929  c13.263-13.263,20.566-30.896,20.566-49.652c0-17.093-6.083-33.242-17.197-46.011c-0.648-4.719-0.992-9.513-0.992-14.277  c0-57.233,46.563-103.795,103.796-103.795c57.232,0,103.795,46.563,103.795,103.795c0,4.764-0.344,9.559-0.992,14.278  c-11.113,12.77-17.196,28.918-17.196,46.01c0,18.756,7.304,36.389,20.566,49.652c1.953,1.953,4.512,2.929,7.071,2.929  s5.118-0.976,7.071-2.929c13.263-13.263,20.566-30.896,20.566-49.652c0-16.676-5.786-32.457-16.389-45.075  c8.005-17.646,12.221-37.039,12.221-56.521c0-0.955-0.017-1.906-0.036-2.856l45.821-30.808  c34.607-23.27,55.663-62.055,56.324-103.752C478.705,184.965,477.306,182.01,474.87,180.079z M415.986,98.011  c1.41,11.905,1.063,23.857-0.94,35.494l-11.803,0.093l-8.237-17.116C401.239,109.6,408.26,103.388,415.986,98.011z M363.782,185.423  c2.098-18.337,8.247-35.68,17.688-50.946l6.501,13.507c1.667,3.464,5.171,5.663,9.01,5.663c0.026,0,0.053,0,0.079,0l12.777-0.1  c-5.313,15.121-13.574,29.271-24.569,41.535l-25.896,28.883L363.782,185.423z M336.792,43.484  c2.931,10.06,4.536,20.378,4.859,30.703l-12.043,5.417l-8.661-17.174C325.557,55.646,330.85,49.289,336.792,43.484z M309.314,83.781  l6.742,13.371c1.752,3.476,5.269,5.5,8.935,5.5c1.373,0,2.767-0.284,4.097-0.882l11.207-5.041  c-2.546,16.688-8.503,32.908-17.799,47.562l-20.78,32.758l-2.004-38.741C298.732,119.371,302.133,100.762,309.314,83.781z   M142.874,43.484c5.92,5.783,11.196,12.115,15.794,18.871l-8.699,17.25l-11.956-5.378C138.334,63.889,139.94,53.557,142.874,43.484z   M139.378,96.771l11.111,4.998c1.33,0.599,2.724,0.882,4.097,0.882c3.665,0,7.183-2.024,8.935-5.5l6.79-13.466  c7.209,17.007,10.625,35.65,9.643,54.62l-2.004,38.741l-20.78-32.758C147.882,129.648,141.928,113.444,139.378,96.771z   M63.681,98.011c7.701,5.36,14.704,11.55,20.922,18.407l-8.268,17.18l-11.714-0.092C62.618,121.868,62.271,109.916,63.681,98.011z   M94.398,195.081c-10.994-12.263-19.256-26.413-24.568-41.534l12.688,0.1c0.026,0,0.052,0,0.079,0c3.839,0,7.343-2.2,9.01-5.663  l6.54-13.588c9.469,15.285,15.635,32.658,17.737,51.027l4.41,38.542L94.398,195.081z M39.607,210.869l-2.499,11.179l-9.934-0.117  c-2.28-6.43-3.962-13.096-4.988-19.92C28.284,204.442,34.111,207.413,39.607,210.869z M68.494,275.228  c-13.035-8.764-23.783-20.144-31.742-33.183l8.229,0.097c0.04,0,0.079,0,0.118,0c4.676,0,8.735-3.245,9.758-7.818l2.189-9.791  c11.259,10.868,20.171,24.211,25.868,39.261l10.729,28.342L68.494,275.228z M151.766,248.98l-2.877,28.312l-14.911-0.93  C138.622,266.394,144.629,257.185,151.766,248.98z M172.573,242.057l16.314,11.936c-6.517,2.955-12.73,6.462-18.589,10.455  L172.573,242.057z M181.974,224.154c12.375-7.093,26.167-11.98,40.835-14.134l-16.439,31.983L181.974,224.154z M297.692,224.154  l-24.396,17.849l-16.439-31.983C271.526,212.174,285.317,217.061,297.692,224.154z M307.094,242.057l2.275,22.392  c-5.859-3.993-12.072-7.5-18.589-10.455L307.094,242.057z M327.901,248.981c7.137,8.204,13.143,17.414,17.787,27.381l-14.91,0.93  L327.901,248.981z M239.833,27.748c4.319,7.2,7.854,14.777,10.601,22.598l-10.6,10.6l-10.602-10.602  C231.98,42.523,235.515,34.947,239.833,27.748z M223.603,72.999l9.16,9.161c1.875,1.875,4.419,2.929,7.071,2.929  s5.195-1.054,7.071-2.929l9.158-9.158c2.772,18.466,1.378,37.58-4.453,55.876l-11.777,36.961l-11.778-36.961  C222.224,110.58,220.83,91.465,223.603,72.999z M126.589,453.743c-4.975-7.913-7.638-17.08-7.638-26.657s2.663-18.744,7.638-26.657  c4.975,7.913,7.638,17.08,7.638,26.657S131.564,445.83,126.589,453.743z M123.118,325.504c0-0.004,0-0.01,0-0.015  c0-10.199,1.319-20.095,3.788-29.53l10.988,0.685C131.779,305.504,126.779,315.189,123.118,325.504z M228.046,243.582l11.788-22.932  l11.788,22.932c-3.883-0.369-7.81-0.58-11.788-0.58S231.928,243.213,228.046,243.582z M341.771,296.645l10.988-0.685  c2.469,9.435,3.788,19.331,3.788,29.53c0,0.005,0,0.01,0,0.015C352.886,315.189,347.886,305.504,341.771,296.645z M353.077,453.743  c-4.975-7.913-7.638-17.08-7.638-26.657s2.663-18.744,7.638-26.657c4.975,7.913,7.638,17.08,7.638,26.657  S358.052,445.83,353.077,453.743z M452.493,221.93l-10.023,0.118l-2.488-11.129c5.519-3.478,11.372-6.466,17.499-8.908  C456.455,208.835,454.773,215.5,452.493,221.93z M411.172,275.228l-25.149,16.91l10.729-28.343  c5.685-15.017,14.572-28.335,25.796-39.19l2.173,9.719c1.022,4.574,5.081,7.818,9.758,7.818c0.039,0,0.079,0,0.118,0l8.318-0.098  C434.955,255.083,424.208,266.463,411.172,275.228z"
   id="path2" />
<g
   id="g4">
</g>
<g
   id="g6">
</g>
<g
   id="g8">
</g>
<g
   id="g10">
</g>
<g
   id="g12">
</g>
<g
   id="g14">
</g>
<g
   id="g16">
</g>
<g
   id="g18">
</g>
<g
   id="g20">
</g>
<g
   id="g22">
</g>
<g
   id="g24">
</g>
<g
   id="g26">
</g>
<g
   id="g28">
</g>
<g
   id="g30">
</g>
<g
   id="g32">
</g>
<path
   style="fill:#ffffff;stroke-width:0.538952"
   d="m 122.88098,478.64744 c -2.14669,-0.93986 -8.17352,-7.39501 -11.4821,-12.29811 -8.05316,-11.93426 -11.962296,-24.76218 -11.962296,-39.2545 0,-16.45979 4.519646,-29.33234 15.502456,-44.15307 0.57344,-0.77383 0.25676,-1.97828 -2.0006,-7.60909 -5.32136,-13.2737 -8.21507,-26.75007 -9.34287,-43.51084 l -0.6558,-9.74621 -24.267673,-16.32928 C 65.324878,296.76523 52.599619,288.01347 50.393743,286.29798 27.423549,268.43427 10.699549,242.04 4.3680735,213.65903 2.7740036,206.51358 1.3473792,195.2216 1.3473792,189.74971 c 0,-6.27678 3.1015976,-10.6088 8.1863655,-11.43394 2.3665463,-0.38404 10.4359663,1.76455 18.6612233,4.9688 26.65886,10.38529 49.150111,29.50486 63.768992,54.20932 4.462418,7.54106 7.676127,14.78292 14.00225,31.5531 2.48284,6.58187 4.66128,11.79623 4.84097,11.58746 0.17968,-0.20877 1.22986,-2.6836 2.33372,-5.49962 1.10387,-2.81602 3.65595,-8.30642 5.67129,-12.20089 l 3.66428,-7.08084 -22.43372,-25.02653 C 87.70421,217.06199 76.257987,204.12024 74.606693,202.06714 52.806591,174.96232 41.229445,138.84222 43.395415,104.68954 c 0.747436,-11.785443 2.755336,-23.838316 4.549118,-27.307112 1.96634,-3.802482 6.891617,-6.047706 10.738406,-4.895179 3.025023,0.906317 13.566961,7.33953 20.499162,12.509602 7.261108,5.41537 19.475784,17.213969 25.271179,24.410339 13.36959,16.60156 22.81482,35.75334 27.898,56.56787 1.98361,8.12244 2.59479,12.40483 5.87832,41.18741 1.46695,12.85897 2.78867,23.50143 2.93714,23.6499 0.14848,0.14848 2.64318,-1.97816 5.54379,-4.72584 5.88364,-5.57344 15.43091,-12.89637 22.10508,-16.955 l 4.40131,-2.67649 -1.16681,-1.9046 c -0.64175,-1.04754 -8.55375,-13.54597 -17.58223,-27.77429 -16.71958,-26.34901 -22.03809,-35.67621 -25.81474,-45.27194 -6.61902,-16.81761 -9.62844,-31.23778 -10.18819,-48.818422 -0.6178,-19.404346 2.46376,-38.116089 9.12858,-55.430137 2.54602,-6.614093 4.732,-9.266274 8.46627,-10.271807 4.51835,-1.216666 8.25509,0.891081 18.05413,10.183635 20.94586,19.863237 34.75857,43.401323 41.46041,70.65225 4.40537,17.913061 4.85301,28.547391 2.80701,66.683991 -1.70166,31.71817 -1.7006,31.64534 -0.45135,31.13598 2.87487,-1.17216 17.92444,-4.59079 22.77509,-5.17354 3.11003,-0.37364 5.73491,-0.73627 5.83304,-0.80586 0.0981,-0.0696 -3.82211,-12.69812 -8.71167,-28.06341 -10.75568,-33.79934 -10.80891,-33.97913 -12.43678,-42.00228 -2.10965,-10.39767 -2.68365,-16.52241 -2.67207,-28.511777 0.0147,-15.172233 1.64467,-26.550597 5.82235,-40.643065 4.67319,-15.763963 13.80234,-33.804873 22.86088,-45.1773479 5.21864,-6.551713 11.62845,-6.5734741 16.82177,-0.05711 3.66774,4.6021332 9.05368,13.1376899 12.69916,20.1254179 16.18307,31.020064 20.40455,67.141155 11.81015,101.053442 -0.71367,2.81602 -5.43679,18.12104 -10.49584,34.01115 -5.05905,15.89011 -9.19827,29.04727 -9.19827,29.23813 0,0.19086 0.81744,0.34702 1.81652,0.34702 3.9678,0 22.3204,3.87206 26.88266,5.67173 1.24902,0.49271 1.25007,0.56527 -0.45135,-31.14848 -2.03635,-37.95682 -1.60041,-48.53781 2.73966,-66.495181 7.25783,-30.029837 24.7368,-57.665471 48.9423,-77.381631 4.36124,-3.55237 7.23512,-4.559795 10.49988,-3.680684 4.83381,1.301609 6.76634,4.318522 10.86536,16.962183 4.39747,13.564259 6.39308,25.014996 6.86463,39.38902 0.68493,20.87749 -2.59611,39.256053 -10.5838,59.284683 -3.45726,8.66886 -9.3583,18.89296 -26.30619,45.57792 -9.51995,14.98946 -17.38438,27.522 -17.47649,27.85008 -0.0921,0.32809 1.894,1.85409 4.4136,3.39112 6.72353,4.10154 15.70838,11.0082 21.71187,16.68991 2.90061,2.74515 5.3882,4.87682 5.52797,4.73705 0.13978,-0.13977 1.58529,-11.87361 3.21225,-26.07518 2.97559,-25.97362 4.43706,-35.19769 6.99445,-44.14541 4.99658,-17.48187 13.8429,-34.94665 24.97874,-49.31408 7.56399,-9.75902 21.06572,-22.460364 31.62179,-29.747217 6.00921,-4.148154 13.27098,-8.333583 15.74485,-9.074771 3.81765,-1.143796 8.73304,1.134386 10.71439,4.96589 3.53926,6.844174 5.73854,34.301838 4.00684,50.024648 -2.86069,25.97323 -12.55661,50.5517 -28.02849,71.05018 -2.61092,3.45916 -15.05001,17.77637 -27.64245,31.81601 l -22.89534,25.52664 3.6638,7.07994 c 2.01509,3.89397 4.56697,9.38397 5.67083,12.19999 1.10386,2.81602 2.15554,5.29236 2.33706,5.50296 0.18153,0.2106 2.49751,-5.36755 5.14663,-12.39589 6.22085,-16.50439 9.14932,-23.06921 13.78671,-30.90593 12.06523,-20.38905 29.83635,-37.24669 50.76997,-48.16026 11.65376,-6.0756 27.48559,-11.52223 31.56679,-10.85994 2.83332,0.45978 5.75553,2.67198 7.04317,5.33187 1.39402,2.87967 1.4813,6.95222 0.3553,16.57808 -3.91514,33.46953 -20.58684,63.77995 -46.65962,84.83074 -3.46526,2.79779 -34.42284,23.96163 -51.24085,35.03029 l -3.02444,1.99051 -0.36629,7.11429 c -0.92015,17.87148 -3.81007,31.76327 -9.71649,46.70694 -2.01903,5.1083 -2.32684,6.33213 -1.77824,7.07013 6.74395,9.07221 11.03722,17.60594 13.45734,26.74918 1.59795,6.03706 1.68344,6.87538 1.71968,16.86245 0.0308,8.47749 -0.15706,11.34323 -0.97135,14.82117 -2.2341,9.54218 -5.61456,17.4363 -10.68334,24.94791 -3.40942,5.05253 -9.37065,11.38399 -11.59954,12.31993 -4.12231,1.73103 -8.17237,0.29318 -12.49433,-4.43574 -8.25145,-9.0284 -13.50778,-18.95233 -16.62856,-31.39468 -1.29226,-5.15215 -1.44362,-6.75623 -1.45794,-15.45016 -0.01,-6.07731 0.24875,-10.90907 0.69272,-12.93484 2.38603,-10.88732 6.89652,-21.11279 12.75558,-28.91747 l 3.5018,-4.66465 0.48474,-6.92282 c 2.92678,-41.79865 -19.26705,-80.87298 -56.8003,-100.00224 -29.04569,-14.80347 -64.5825,-14.81117 -93.69367,-0.0203 -37.64126,19.12487 -59.88454,58.31214 -56.9115,100.26428 l 0.47369,6.6841 2.91164,3.85471 c 10.19052,13.49113 14.94407,28.656 14.19887,45.2975 -0.75021,16.75337 -6.6104,31.23424 -17.61336,43.52363 -4.8263,5.39057 -8.92406,6.97198 -13.20698,5.09685 z m 6.48775,-29.56596 c 5.66323,-11.76778 6.60184,-25.24435 2.6173,-37.57912 -1.47068,-4.55273 -4.51184,-10.80272 -5.33239,-10.95877 -0.86224,-0.16398 -5.00571,8.72474 -6.24721,13.40173 -2.51796,9.48577 -1.84489,22.35894 1.63813,31.33092 1.47212,3.79207 4.11906,8.79055 4.65502,8.79055 0.1485,0 1.34961,-2.24339 2.66915,-4.98531 z m 226.97207,-0.8362 c 3.37744,-7.18075 4.14826,-11.10636 4.14826,-21.12608 0,-7.49464 -0.1859,-9.56576 -1.18246,-13.17388 -1.31076,-4.74568 -5.45075,-13.56195 -6.29325,-13.40173 -0.82055,0.15605 -3.86171,6.40604 -5.33239,10.95877 -4.00303,12.39203 -3.04852,25.80865 2.68312,37.71386 2.84997,5.91969 2.7263,5.93978 5.97672,-0.97094 z M 124.4263,322.96679 c 1.71643,-4.90619 7.03337,-15.59649 10.50162,-21.11467 1.83655,-2.92208 3.27271,-5.3658 3.19145,-5.43049 -0.0813,-0.0647 -2.7223,-0.26835 -5.86899,-0.45257 l -5.72124,-0.33494 -0.64047,3.08941 c -1.48593,7.16761 -2.1869,11.84904 -2.46861,16.48648 -0.16462,2.71001 -0.41602,6.20056 -0.55865,7.75678 -0.14263,1.55623 -0.0716,2.8295 0.15784,2.8295 0.22943,0 0.86261,-1.27327 1.40705,-2.8295 z m 232.36744,0.53895 c -0.13261,-1.2598 -0.36944,-4.71582 -0.52627,-7.68006 -0.26577,-5.02301 -0.92735,-9.56853 -2.48914,-17.10215 l -0.64047,-3.08941 -5.72125,0.33494 c -3.14669,0.18422 -5.78738,0.38753 -5.8682,0.45179 -0.0808,0.0643 1.21552,2.27388 2.88076,4.91027 3.30955,5.23963 9.2669,17.1509 10.82095,21.63567 1.18464,3.41872 1.87203,3.65872 1.54362,0.53895 z M 92.47868,288.20441 C 80.757085,256.43874 76.858061,248.11764 68.550789,237.13874 64.133697,231.3011 57.880899,224.40235 57.209726,224.62607 c -0.300951,0.10032 -1.110171,2.69759 -1.798266,5.7717 -1.394146,6.22843 -1.958571,7.3426 -4.830106,9.53458 -1.847646,1.41039 -2.427184,1.5371 -8.17551,1.78748 l -6.186898,0.26947 3.116532,4.58109 c 5.980018,8.79022 13.682184,17.08805 22.166874,23.88118 3.816656,3.05575 31.382455,21.84788 32.126947,21.90155 0.214859,0.0155 -0.302918,-1.85143 -1.150619,-4.14871 z m 306.75802,-4.53362 c 7.18373,-4.79078 15.00156,-10.16881 17.37295,-11.95119 8.50432,-6.39201 20.6255,-19.6276 25.52019,-27.8665 l 1.26736,-2.13327 h -5.46155 c -6.05761,0 -8.10071,-0.59703 -10.37794,-3.0326 -1.75608,-1.87816 -2.32595,-3.32079 -3.6382,-9.21004 -0.55705,-2.49998 -1.18008,-4.70919 -1.38452,-4.90935 -0.48622,-0.47607 -6.30602,5.90391 -10.9755,12.03195 -7.68974,10.09169 -11.43622,17.45264 -18.92727,37.18766 -6.62372,17.45006 -7.03652,18.59383 -6.71068,18.59383 0.1396,0 6.13141,-3.91972 13.31516,-8.71049 z M 149.25419,276.078 c 0.14002,-0.66696 0.75658,-6.54827 1.37013,-13.06958 0.61355,-6.52132 1.24176,-12.42636 1.39604,-13.12233 0.42482,-1.9164 -0.49138,-1.25127 -3.56947,2.59134 -5.44512,6.79754 -14.5214,21.5605 -14.5214,23.61968 0,0.60903 2.78475,0.88734 10.90351,1.08968 3.92548,0.0978 4.18133,0.0337 4.42119,-1.10879 z m 196.46403,0.33366 c 0.86587,-0.86587 -8.84675,-16.91108 -14.47511,-23.9128 -3.10697,-3.86511 -4.02134,-4.52938 -3.59648,-2.61277 0.15428,0.69597 0.7825,6.60101 1.39604,13.12233 0.61355,6.52131 1.23879,12.43721 1.38942,13.14643 l 0.27388,1.2895 7.37216,-0.38238 c 4.05469,-0.2103 7.49273,-0.50294 7.64009,-0.65031 z M 177.24499,260.51033 c 2.33284,-1.39519 5.91315,-3.33505 7.95625,-4.3108 2.04311,-0.97575 3.63471,-2.01418 3.53689,-2.30762 -0.20181,-0.60544 -16.01921,-12.33921 -16.27665,-12.07445 -0.14511,0.14924 -2.42223,21.53411 -2.42223,22.74768 0,0.24947 0.66696,0.01 1.48212,-0.53226 0.81517,-0.54221 3.3908,-2.12736 5.72362,-3.52255 z m 131.27483,-7.2676 c -0.63097,-6.18938 -1.2186,-11.32695 -1.30585,-11.41681 -0.2459,-0.25327 -16.08858,11.47537 -16.27724,12.05034 -0.0918,0.27991 2.32379,1.77263 5.36807,3.31716 3.04428,1.54453 7.22202,3.89364 9.28387,5.22025 2.06185,1.32662 3.82296,2.33788 3.91358,2.24726 0.0906,-0.0906 -0.35147,-5.22881 -0.98243,-11.4182 z m -56.79101,-10.17552 c -1.94497,-4.31353 -11.49706,-22.02401 -11.89531,-22.05503 -0.39702,-0.0309 -9.78633,17.37773 -11.89532,22.05503 -0.15806,0.35054 4.00039,0.53895 11.89532,0.53895 7.89492,0 12.05337,-0.18841 11.89531,-0.53895 z m -36.93784,-16.74402 c 4.4947,-8.76457 8.02593,-16.08183 7.84718,-16.26058 -0.60056,-0.60057 -12.37357,2.08688 -19.71936,4.50138 -7.3311,2.40966 -20.71079,8.6418 -20.68849,9.6365 0.0115,0.51255 23.25521,17.95565 24.01886,18.02481 0.2033,0.0184 4.04711,-7.13754 8.54181,-15.90211 z m 70.85342,7.12642 c 6.52131,-4.80695 11.84509,-8.97498 11.83062,-9.26229 -0.0505,-1.00275 -13.50498,-7.24959 -20.72681,-9.62333 -7.34579,-2.4145 -19.11879,-5.10195 -19.71936,-4.50138 -0.38015,0.38015 15.84127,32.21285 16.38899,32.16154 0.20329,-0.019 5.70524,-3.96759 12.22656,-8.77454 z M 120.4557,223.38895 c 0,-2.57618 -5.06388,-43.62536 -5.94421,-48.18536 -2.21817,-11.48986 -6.69737,-23.96724 -12.39835,-34.5372 -4.223891,-7.83135 -3.608883,-7.816 -7.216577,-0.18012 -5.849603,12.381 -6.490595,12.84548 -17.727155,12.84548 -4.426065,0 -7.375166,0.2099 -7.375166,0.52492 0,0.28871 0.745537,2.41083 1.656748,4.71583 4.558222,11.53046 12.737277,25.08352 20.787393,34.44565 8.054757,9.36752 27.410457,30.86486 27.813107,30.89052 0.22231,0.0142 0.40421,-0.21971 0.40421,-0.51972 z m 251.74427,-13.1981 c 19.60942,-21.87103 23.0518,-26.27872 29.46402,-37.72631 2.64477,-4.72166 7.31747,-15.11602 7.97754,-17.74597 l 0.3282,-1.30766 -8.03993,-0.17432 c -7.74846,-0.16799 -8.1218,-0.22855 -10.29831,-1.67052 -1.9748,-1.30834 -2.73051,-2.47573 -6.01836,-9.29692 -2.06799,-4.29039 -3.96568,-7.80071 -4.21709,-7.80071 -0.73734,0 -5.90584,9.71237 -8.78931,16.5164 -5.94821,14.03584 -7.67699,22.02853 -10.96859,50.71131 -2.69747,23.50548 -2.59864,22.39609 -1.9729,22.14844 0.24967,-0.0988 5.8903,-6.24299 12.53473,-13.65374 z m -333.978482,8.22419 c 1.837273,-8.13569 1.944814,-7.54022 -1.769222,-9.79638 -3.469243,-2.10745 -13.162137,-6.78126 -14.063492,-6.78126 -0.306942,0 -0.402641,0.74532 -0.224905,1.7516 0.615831,3.48661 2.402042,10.9986 3.5242,14.82117 l 1.147061,3.9074 h 5.252529 5.252528 z m 415.757432,-0.005 c 1.12216,-3.82256 2.90837,-11.33455 3.5242,-14.82117 0.17774,-1.00627 0.082,-1.75159 -0.2249,-1.75159 -0.88042,0 -10.54137,4.64396 -14.14114,6.79755 -1.84388,1.10313 -3.39574,2.02862 -3.44856,2.05664 -0.0801,0.0425 0.64498,3.3791 2.26295,10.41333 0.26599,1.15645 0.52454,1.21264 5.57966,1.21264 h 5.30073 z M 179.2314,157.82061 c 1.57298,-29.14104 1.35576,-36.96754 -1.40775,-50.72066 -1.29488,-6.44421 -5.26327,-19.477003 -6.85652,-22.517828 l -0.7924,-1.512347 -4.14354,8.180414 c -3.72993,7.363853 -4.37355,8.315205 -6.44777,9.530781 -3.66973,2.15061 -6.36329,1.87073 -13.63723,-1.416993 -3.36747,-1.522048 -6.28999,-2.600038 -6.4945,-2.395533 -0.66291,0.662911 2.02834,12.229226 4.77529,20.523026 4.56102,13.77091 7.55999,19.16407 31.57563,56.78352 1.01414,1.5886 1.97251,2.75974 2.12973,2.60253 0.1572,-0.15721 0.74178,-8.73282 1.29906,-19.05691 z m 134.00686,1.70909 c 5.61107,-8.89271 11.11035,-17.6793 12.22062,-19.52577 3.43683,-5.71576 7.33183,-14.51857 10.05768,-22.7307 2.62326,-7.90303 5.32211,-19.681418 4.66116,-20.342361 -0.19487,-0.194875 -3.11352,0.895511 -6.48589,2.423078 -6.93658,3.142033 -9.7465,3.504723 -13.26114,1.711693 -2.61645,-1.334815 -3.4026,-2.454083 -7.5634,-10.768313 -2.97845,-5.951611 -3.43922,-6.605591 -4.05793,-5.759442 -1.29248,1.767562 -5.58616,15.650965 -6.94119,22.444025 -2.73792,13.72563 -2.98795,20.78957 -1.66775,47.11804 1.07544,21.4471 1.25103,23.28045 2.13938,22.33756 0.38307,-0.4066 5.28738,-8.01511 10.89846,-16.90781 z m -66.76782,-13.4738 c 8.9369,-28.25148 9.82058,-32.03115 10.89514,-46.600555 0.74413,-10.089396 -0.2252,-26.427393 -1.56794,-26.427393 -0.19636,0 -2.53472,2.209071 -5.19635,4.909047 -9.09081,9.221781 -12.44477,9.221781 -21.53559,0 -2.66163,-2.699976 -4.99999,-4.909047 -5.19635,-4.909047 -1.34441,0 -2.32115,16.008816 -1.5907,26.071513 1.05432,14.524195 2.10535,19.183255 9.80257,43.453255 7.84667,24.74125 7.57501,23.95843 8.02226,23.11792 0.21992,-0.41328 3.08505,-9.23992 6.36696,-19.61474 z M 80.725131,125.24 l 4.138782,-8.6895 -1.098098,-1.54213 C 81.084051,111.24218 64.290187,97.215667 63.458493,98.047356 c -0.693345,0.69335 -0.814631,22.144994 -0.157713,27.894764 1.009338,8.83431 0.240243,7.98737 7.253185,7.98737 h 6.032383 z m 334.712939,7.47685 c 0.16097,-0.66695 0.57863,-3.71558 0.92814,-6.77473 0.65692,-5.74977 0.53563,-27.201414 -0.15771,-27.894764 -0.83663,-0.836626 -17.63011,13.201214 -20.3321,16.995804 l -1.12287,1.57692 4.13865,8.6547 4.13864,8.65471 h 6.0573 c 5.83562,0 6.06801,-0.0443 6.34995,-1.21264 z M 154.40648,71.417435 c 2.37313,-4.739288 4.31479,-8.851882 4.31479,-9.1391 0,-1.712546 -15.1105,-19.547193 -15.90952,-18.777706 -1.21565,1.17074 -4.129,16.950358 -4.86,26.323304 l -0.35959,4.61078 6.11821,2.756436 c 3.365,1.516039 6.1774,2.775952 6.24976,2.799806 0.0724,0.02388 2.07322,-3.834232 4.44635,-8.57352 z m 185.59426,3.909701 2.07804,-0.844957 -0.36157,-4.634516 c -0.73307,-9.396428 -3.64475,-25.174791 -4.86197,-26.347034 -0.89081,-0.857895 -15.90952,17.131316 -15.90952,19.056214 0,0.864969 1.82667,4.643991 6.02485,12.464239 l 2.66129,4.957363 4.14542,-1.903178 c 2.27998,-1.046747 5.08054,-2.283404 6.22346,-2.748131 z M 249.18917,46.158652 c -2.24745,-5.955039 -8.63182,-18.462601 -9.3138,-18.246553 -0.97263,0.308128 -5.64894,9.139592 -8.39962,15.86313 l -2.59675,6.347277 5.46783,5.52447 5.46784,5.524465 5.46478,-5.446182 5.46478,-5.446187 z"
   id="path41" /></svg>
